<mxfile host="app.diagrams.net" modified="2023-08-27T09:55:47.465Z" agent="Mozilla/5.0 (Macintosh; Intel Mac OS X 10_15_7) AppleWebKit/537.36 (KHTML, like Gecko) Chrome/115.0.0.0 Safari/537.36" version="21.6.8" etag="BpFKhSoo2XgQp1-_jxAW" type="github">
  <diagram name="페이지-1" id="bWxtMR2rymYosVdc6D3Y">
    <mxGraphModel>
      <root>
        <mxCell id="0" />
        <mxCell id="1" parent="0" />
      </root>
    </mxGraphModel>
  </diagram>
</mxfile>
